<?xml version="1.0" standalone="no"?>
<!DOCTYPE svg PUBLIC "-//W3C//DTD SVG 20010904//EN"
 "http://www.w3.org/TR/2001/REC-SVG-20010904/DTD/svg10.dtd">
<svg version="1.0" xmlns="http://www.w3.org/2000/svg"
 width="192.000000pt" height="192.000000pt" viewBox="0 0 192.000000 192.000000"
 preserveAspectRatio="xMidYMid meet">
<metadata>
Created by potrace 1.11, written by Peter Selinger 2001-2013
</metadata>
<g transform="translate(0.000000,192.000000) scale(0.100000,-0.100000)"
fill="#000000" stroke="none">
<path d="M1058 1647 l-96 -102 4 -200 c3 -110 6 -261 8 -335 l4 -135 103 0
103 0 -1 75 c-1 41 -4 167 -8 280 -3 113 -8 274 -10 359 -2 84 -5 154 -7 156
-2 2 -46 -42 -100 -98z"/>
<path d="M1381 1340 l-93 -100 2 -117 c1 -65 2 -145 3 -178 l2 -60 120 2 c66
1 147 2 181 2 l61 1 89 91 c49 50 95 98 103 106 11 12 -12 13 -173 9 -102 -3
-185 -2 -185 2 1 4 1 42 0 85 -1 60 -4 76 -13 71 -10 -6 -10 -5 -1 7 12 14 14
179 2 179 -3 0 -47 -45 -98 -100z m-37 -226 c3 -8 2 -12 -4 -9 -6 3 -10 10
-10 16 0 14 7 11 14 -7z"/>
<path d="M723 1092 l-23 -3 -1 -277 c-1 -491 0 -554 5 -559 3 -3 48 38 100 91
l96 96 0 325 c0 253 -3 325 -12 326 -77 3 -147 3 -165 1z"/>
<path d="M137 989 l-99 -99 182 0 c123 0 179 -3 175 -10 -4 -6 -1 -18 7 -27 7
-9 8 -14 2 -10 -14 8 -14 -105 1 -115 6 -5 4 -8 -5 -8 -13 0 -13 -1 0 -10 8
-5 10 -10 4 -10 -7 0 -11 -27 -11 -75 0 -41 2 -75 4 -75 3 0 47 42 98 94 l94
93 0 141 c0 77 1 144 2 149 1 4 1 20 0 36 l-1 27 -177 -1 -178 0 -98 -100z"/>
</g>
</svg>
